# xmcd
#
# Track frame offsets:
#	150
#	16744
#	30321
#	46246
#	63970
#	80187
#	99130
#	114711
#	130798
#	145566
#	161985
#	178395
#	196775
#	211342
#	225285
#	241711
#	256411
#	271191
#	285380
#	299362
#
# Disc length: 4210 seconds
#
# Revision: 1
# Processed by: cddbd v1.5.2PL0 Copyright (c) Steve Scherf et al.
# Submitted via: audiograbber 1.83.01
#
DISCID=0b107014
DTITLE=Verschiedene - 1000 Takte SUPERKRACHER - CD 2
DYEAR=1900
DGENRE=Stimmungsmusik
TTITLE0=Geboren, um Dich zu lieben
TTITLE1=Hulapalu
TTITLE2=Geiles Leben
TTITLE3=Wolke
TTITLE4=Warum hast Du nicht nein gesagt
TTITLE5=Tausend Träume weit
TTITLE6=Ich bau dir ein Schloß
TTITLE7=Der Mann im Mond
TTITLE8=Das hat die Welt noch nicht gesehen
TTITLE9=Jugendliebe 
TTITLE10=Großes Kino 
TTITLE11=Sie liebt den DJ
TTITLE12=Das wäre wenn 
TTITLE13=Ich fang Dir den Mond 
TTITLE14=Ein Stern, der deinen Namen trägt 
TTITLE15=Ein weisses Boot 
TTITLE16=Aber Dich gibt's nur einmal für mich 
TTITLE17=I sing a Lidl für di 
TTITLE18=Du schaffst das schon 
TTITLE19=Atemlos durch die Nacht 
EXTD=
EXTT0=
EXTT1=
EXTT2=
EXTT3=
EXTT4=
EXTT5=
EXTT6=
EXTT7=
EXTT8=
EXTT9=
EXTT10=
EXTT11=
EXTT12=
EXTT13=
EXTT14=
EXTT15=
EXTT16=
EXTT17=
EXTT18=
EXTT19=
PLAYORDER=
